<svg xmlns="http://www.w3.org/2000/svg" viewBox="-30 0 500 500" width="500" height="500">
    <text x ="240" y= "50" text-anchor = "middle">Single Adults in Shelters versus time</text>

    <text x="60" y="490" text-anchor="middle">2014</text>
    <text x="120" y="490" text-anchor="middle">2016</text>
    <text x="180" y="490" text-anchor="middle">2018</text>
    <text x="240" y="490" text-anchor="middle">2020</text>
    <text x="300" y="490" text-anchor="middle">2022</text>
    <text x="360" y="490" text-anchor="middle">2024</text>
    <text x="426.79245283018867" y="490" text-anchor="middle">2020</text>
    <text alignment-baseline="middle" text-anchor = "middle" transform = "translate(-20,250) rotate(270)">Single Adults in Shelters</text>
    
    <line x1="25" y1="460" x2="25" y2="10" style="stroke:black"/>
    <line x1="25" y1="460" x2="460" y2="460" style="stroke:black"/>   
  
    <line x1="20" x2 = "30" y1 = "56" y2="56" style = "stroke:black"/>
    <text x = "0" y = "61">90</text>
    
    <line x1="20" x2 = "30" y1 = "102" y2="102" style = "stroke:black"/>
    <text x = "0" y = "107">80</text>
    
    <line x1="20" x2 = "30" y1 = "148" y2="148" style = "stroke:black"/>
    <text x = "0" y = "153">70</text>
    
    <line x1="20" x2 = "30" y1 = "194" y2="194" style = "stroke:black"/>
    <text x = "0" y = "199">60</text>
    
    <line x1="20" x2 = "30" y1 = "240" y2="240" style = "stroke:black"/>
    <text x = "0" y = "245">50</text>
    
    <line x1="20" x2 = "30" y1 = "286" y2="286" style = "stroke:black"/>
    <text x = "0" y = "291">40</text>
    
    <line x1="20" x2 = "30" y1 = "332" y2="332" style = "stroke:black"/>
    <text x = "0" y = "337">30</text>
    
    <line x1="20" x2 = "30" y1 = "378" y2="378" style = "stroke:black"/>
    <text x = "0" y = "383">20</text>
    
    <line x1="20" x2 = "30" y1 = "424" y2="424" style = "stroke:black"/>
    <text x = "0" y = "429">10</text>
    
    <line x1="20" x2 = "30" y1 = "10" y2="10" style = "stroke:black"/>
    <text x = "-9" y = "15">100</text>

</svg>